<?xml version="1.0" encoding="utf-8"?>
<!-- Generator: Adobe Illustrator 26.0.0, SVG Export Plug-In . SVG Version: 6.00 Build 0)  -->
<svg version="1.1" id="Layer_1" xmlns="http://www.w3.org/2000/svg" xmlns:xlink="http://www.w3.org/1999/xlink" x="0px" y="0px"
	 viewBox="0 0 500 133.8" style="enable-background:new 0 0 500 133.8;" xml:space="preserve">
<style type="text/css">
	.st0{fill:#FFFFFF;}
</style>
<g>
	<g>
		<path class="st0" d="M291.9,47.4c-1.5,0-4.7,0-6.6,7l-5.4,20c-0.4,1.7-0.5,2.8-0.5,3.4c0,0.6,0.1,0.9,0.1,1
			c0.2,0.1,0.6,0.2,1.4,0.2c1.5,0,4.7,0,6.5-7l5.4-20.1l0,0l0,0c0.5-1.7,0.6-2.7,0.6-3.3c0-0.6-0.1-0.9-0.1-1
			C293.1,47.5,292.6,47.4,291.9,47.4z"/>
		<path class="st0" d="M272.2,103.9c-0.1,0.3-0.1,0.6-0.1,0.7c0.3,0.1,1,0.2,2.1,0.2c1,0,2.9,0,4.5-2.5c-2,0.3-4.1,0.6-6.2,0.7
			L272.2,103.9z"/>
		<path class="st0" d="M195,47.2c-1.2,0-3.5,0-5.3,3.5h6.4c0.2-0.8,0.3-1.6,0.3-2.2v0l0,0c0-0.6-0.1-0.9-0.1-1
			C196.2,47.3,195.8,47.2,195,47.2z"/>
		<path class="st0" d="M333,56.1l-2.3,8.6c2.9-2.9,6.4-5.3,10.8-7c1.4-0.6,3-1.1,4.8-1.6h-9.2H333z"/>
		<path class="st0" d="M183,74.3L183,74.3L183,74.3c-0.5,1.7-0.6,2.8-0.6,3.4c0,0.5,0.1,0.8,0.1,1c0.2,0.1,0.6,0.2,1.4,0.2
			c2.8,0,4.9-0.9,6-5.2l0.3-1.2h-6.8L183,74.3z"/>
		<path class="st0" d="M465.3,69.4l15.4-57.5L483.9,0h-51.2l-1.9,7l-6.5,24.3c-1.9-2.4-4.3-4.5-7.1-6.2c-7.3-4.5-17.3-6.7-30.6-6.7
			c-17,0-30.8,3.4-41.2,10.2l2.6-9.6h-51.1c-2.5-0.4-5-0.6-7.8-0.6c-22.8,0-36.9,7.5-45.7,17.4c-2.4-4.2-6-7.7-10.6-10.4
			c-8-4.7-19.1-7-33.9-7c-17,0-31,3.2-41.5,9.4c-0.4,0.2-0.7,0.4-1,0.6l4.4-16.5L163.9,0H6.1l24.5,17.2l2.5,1.8h-9.4l-1.9,7
			L3.2,95.3L0,107.2h135.2l1.9-7l1.5-5.6c2.1,2.4,4.6,4.4,7.5,6.2c8,4.8,19.1,7.1,33.9,7.1c17.3,0,31.4-3.2,42-9.7l-0.5,3.2
			c-0.2,1.3-0.3,2.6-0.3,3.9c0,10,5.4,18.1,15.2,22.9c7.9,3.9,18.9,5.7,33.6,5.7c35.4,0,50.1-17.7,56.1-34.5
			c1.7,1.4,3.7,2.6,6.1,3.7c7,3.2,16.6,4.7,29.4,4.7c2.9,0,5.6-0.2,8.4-0.6h119.8l1.9-7l5.1-18.9l3.2-11.9H465.3z M492.2,80.1
			L487.1,99l-0.9,3.5H371.2l0.1-0.3c-3.1,0.6-6.3,0.9-9.7,0.9c-12.1,0-21.1-1.4-27.4-4.3c-5.7-2.6-8.6-6.1-10.1-9.6l-1.1,4
			c-3.2,11.9-9.4,21-18.4,27c-8.8,5.9-20.5,8.9-34.7,8.9c-13.9,0-24.2-1.7-31.5-5.3c-10.3-5-12.5-12.9-12.5-18.6
			c0-1.1,0.1-2.1,0.2-3.2l0.6-4h18.5c-7.9-4.4-11-11.1-11.8-17.6c-9.5,15-27.5,22.7-53.5,22.7c-13.9,0-24.2-2.1-31.5-6.4
			c-6-3.6-9.9-8.8-11.3-15.2L132.5,99l-0.9,3.5H6.2l1.6-6l18.6-69.3l0.9-3.5H48L33.3,13.3L21,4.7h136.7l-1.6,6l-8.5,31.6
			c10-12.8,27.1-19.2,51.1-19.2c13.9,0,24.2,2.1,31.5,6.3c6.4,3.8,10.4,9.4,11.6,16.4c3.3-5.6,7.6-10.2,12.8-13.8
			c8.7-5.9,20.3-8.9,34.3-8.9c4,0,7.7,0.5,11.1,1.5l0.2-0.9h41.3l-1.6,6l-3.7,13.9c9.7-13.6,26.6-20.5,50.2-20.5
			c29.2,0,37.5,11.6,38.8,22.6l10-37.5l0.9-3.5h41.3l-1.6,6l-17,63.4h34.7L492.2,80.1z"/>
		<path class="st0" d="M382.6,47.5c-4,0-6.3,1.3-7.5,4.4c4.2-0.6,7.6-1.4,10.3-2.3c0.1-0.5,0.1-0.9,0.1-1.2v-0.1l0-0.1
			c0-0.2,0-0.3,0-0.4C385.4,47.8,384.6,47.5,382.6,47.5z"/>
		<path class="st0" d="M370.4,76.2c-2.2,0.9-2.5,1.9-2.7,2.3c0,0.1,0,0.1,0,0.2c0.5,0.2,1.6,0.4,3.6,0.4c6.2,0,6.8-2.2,7-3l0.4-1.5
			c-0.4,0-0.8,0.1-1.1,0.1C373.4,75.2,371.4,75.8,370.4,76.2z"/>
	</g>
	<g>
		<path class="st0" d="M50.1,97.8H12.3L31,28.4h32l-27-19h37.7L50.1,97.8z"/>
		<path class="st0" d="M89,97.8H57.4L81.1,9.5h31.5L89,97.8z"/>
		<path class="st0" d="M127.9,97.8H96.4L120,9.5h31.5L127.9,97.8z"/>
		<path class="st0" d="M234.2,67.8h-54.3l-1.4,5.3c-0.5,1.8-0.7,3.3-0.7,4.6c0,3.9,2.1,5.9,6.2,5.9c5.5,0,9-2.9,10.6-8.7h36.7
			c-8,15.6-25.1,23.5-51.3,23.5c-25.8,0-38.8-7.7-38.8-23c0-2.8,0.5-6,1.4-9.4l1.5-5.7c5.8-21.6,24-32.4,54.7-32.4
			c25.9,0,38.8,7.6,38.8,22.8c0,3-0.5,6.2-1.5,9.7L234.2,67.8z M199.8,55.5l0.7-2.5c0.5-1.7,0.7-3.2,0.7-4.5c0.1-4-2-6-6.2-6
			c-5.5,0-9.3,3.5-11.2,10.5l-0.7,2.5H199.8z"/>
		<path class="st0" d="M318.5,92c-5.8,21.6-21.9,32.4-48.5,32.4c-26.2,0-39.3-6.4-39.3-19.2c0-0.8,0.1-1.6,0.2-2.5h36.7
			c-0.2,0.8-0.3,1.6-0.3,2.2c0.1,3.1,2.4,4.6,6.8,4.6c5.4,0,9.1-3.5,10.9-10.4l1-3.8c-4.9,2-10.2,3-15.8,3
			c-21.4,0-32.1-7.2-32.2-21.6c0-3.2,0.5-6.8,1.5-10.7l1.5-5.7c5.8-21.6,21.8-32.5,47.9-32.5c5.6,0,10.4,1,14.3,3.1l0.7-2.5h31.5
			L318.5,92z M292,73.2l5.4-20.1c0.5-1.8,0.7-3.3,0.7-4.6c0-3.9-2.1-5.9-6.2-5.9c-5.5,0-9.3,3.5-11.2,10.5l-5.4,20.1
			c-0.5,1.8-0.7,3.3-0.7,4.6c0,3.9,2.1,5.9,6.2,5.9C286.5,83.7,290.2,80.2,292,73.2z"/>
		<path class="st0" d="M409,97.8h-31.5l0.7-2.5c-5,2.1-10.5,3.1-16.5,3.1c-22.6,0-33.9-5.2-33.9-15.5c0-1.4,0.2-3,0.7-4.6
			c2-7.6,7-13,14.9-16.2c4.8-2,12.5-3.4,23-4.4c10.5-0.9,18.2-2.4,23.1-4.5l0.5-1.8c0.3-1.1,0.4-2,0.4-2.9c0.1-3.8-2.5-5.7-7.8-5.7
			c-6.4,0-10.5,2.9-12.3,8.6h-33.1c8.1-15.7,24.6-23.5,49.4-23.5c22.8,0,34.2,7.1,34.3,21.2c0,2.9-0.5,6.1-1.4,9.5L409,97.8z
			 M382.9,77.3l2.4-9c-1.7,0.7-4.5,1.3-8.3,1.7c-3.8,0.5-6.6,1-8.4,1.8c-3,1.2-4.8,3.1-5.4,5.5c-0.2,0.7-0.2,1.3-0.2,1.8
			c0,3.1,2.8,4.7,8.4,4.7C377.9,83.8,381.7,81.7,382.9,77.3z"/>
		<path class="st0" d="M447.9,97.8h-31.5L440,9.5h31.5L447.9,97.8z"/>
		<path class="st0" d="M482.5,97.8h-27.2l5.1-18.9h27.2L482.5,97.8z"/>
	</g>
</g>
</svg>
