<?xml version="1.0" encoding="utf-8"?>
<!-- Generator: Adobe Illustrator 26.0.0, SVG Export Plug-In . SVG Version: 6.00 Build 0)  -->
<svg version="1.1" id="Layer_1" xmlns="http://www.w3.org/2000/svg" xmlns:xlink="http://www.w3.org/1999/xlink" x="0px" y="0px"
	 viewBox="0 0 512 512" style="enable-background:new 0 0 512 512;" xml:space="preserve">
<style type="text/css">
	.st0{clip-path:url(#SVGID_00000171681667707398001980000000234500492285574049_);}
	.st1{fill:#231F20;}
	.st2{clip-path:url(#SVGID_00000040535541796617026360000015926942648966837670_);}
	.st3{clip-path:url(#SVGID_00000090276457404281937850000001500765107424754602_);}
	.st4{fill:#FFFFFF;}
</style>
<g>
	<g>
		<g>
			<defs>
				<ellipse id="SVGID_1_" cx="256" cy="256" rx="256" ry="141.8"/>
			</defs>
			<clipPath id="SVGID_00000137116473057378193000000009702005987182060723_">
				<use xlink:href="#SVGID_1_"  style="overflow:visible;"/>
			</clipPath>
			<g style="clip-path:url(#SVGID_00000137116473057378193000000009702005987182060723_);">
				<g>
					
						<rect id="SVGID_00000142158096719909693290000012803291269667334278_" x="-87" y="-86.9" class="st1" width="685.9" height="685.9"/>
				</g>
				<g>
					<defs>
						<rect id="SVGID_00000109017533978362379510000006420104924864215460_" x="-87" y="-86.9" width="685.9" height="685.9"/>
					</defs>
					<clipPath id="SVGID_00000027585207768841984600000005205090460400343217_">
						<use xlink:href="#SVGID_00000109017533978362379510000006420104924864215460_"  style="overflow:visible;"/>
					</clipPath>
					<g style="clip-path:url(#SVGID_00000027585207768841984600000005205090460400343217_);">
						<rect x="-263.5" y="-208" width="991.8" height="927.8"/>
						<g>
							<g>
								<g>
									
										<image style="overflow:visible;enable-background:new    ;" width="993" height="928" xlink:href="686E8768.png"  transform="matrix(1 0 0 1 -264 -208)">
									</image>
								</g>
								
									<image style="overflow:visible;opacity:0.3;enable-background:new    ;" width="993" height="928" xlink:href="686E8769.png"  transform="matrix(1 0 0 1 -264 -208)">
								</image>
							</g>
							
								<image style="overflow:visible;opacity:0.4;enable-background:new    ;" width="993" height="928" xlink:href="686E876F.png"  transform="matrix(1 0 0 1 -264 -208)">
							</image>
							
								<image style="overflow:visible;opacity:0.6;enable-background:new    ;" width="306" height="928" xlink:href="686E876A.png"  transform="matrix(1 0 0 1 -264 -208)">
							</image>
						</g>
					</g>
				</g>
				<g>
					<defs>
						<rect id="SVGID_00000043440569983020849180000006169484294631893403_" x="-87" y="-86.9" width="685.9" height="685.9"/>
					</defs>
					<clipPath id="SVGID_00000172424211450647267030000004184742456003836584_">
						<use xlink:href="#SVGID_00000043440569983020849180000006169484294631893403_"  style="overflow:visible;"/>
					</clipPath>
					<g style="clip-path:url(#SVGID_00000172424211450647267030000004184742456003836584_);">
						
							<image style="overflow:visible;opacity:0.5;enable-background:new    ;" width="1019" height="765" xlink:href="686E8768.jpg"  transform="matrix(0.6728 0 0 0.6728 -86.83 -258.6037)">
						</image>
						
							<image style="overflow:visible;opacity:0.5;enable-background:new    ;" width="1019" height="765" xlink:href="686E8769.jpg"  transform="matrix(0.6728 0 0 -0.6728 -86.8295 770.6094)">
						</image>
					</g>
				</g>
			</g>
		</g>
	</g>
	<g>
		<path class="st4" d="M256,118.6C119.2,118.6,8,180.3,8,256s111.2,137.4,248,137.4S504,331.7,504,256S392.8,118.6,256,118.6z
			 M427,166.5c10.4,5.7,20,12.1,28.6,19.1H352.3c-9.3-11.4-20.8-22.2-34.4-32.1c-16.6-12.1-32.8-20.5-44-25.6
			C331.8,130.3,386,143.9,427,166.5z M260.4,131.7c9,3.6,30.8,13.4,52.3,29.1c10.7,7.8,20.1,16.1,27.9,24.8h-80.4v-53.9H260.4z
			 M85,166.5c41.4-22.9,96.4-36.6,155.1-38.7l0,0c-11.4,5.8-28,15.4-44.4,28.2c-12,9.3-22.5,19.3-31.1,29.7H56.5
			C64.8,178.9,74.4,172.4,85,166.5z M251.6,132.1v53.5h-75C202.4,157.2,237.2,138.9,251.6,132.1z M84.9,345.3
			c-10.2-5.6-19.5-11.9-27.8-18.4h106.2c9,10.8,19.8,21.1,32.3,30.4c16.8,12.4,33.3,21.4,44.7,26.9
			C181.6,382.1,126.4,368.4,84.9,345.3z M251.6,379.5c-14.7-6.5-50.4-24.2-76.4-52.6h76.4V379.5z M426.9,345.5
			c-41.8,23.1-97.2,36.9-156.3,38.7c12.1-6.2,29.8-16.1,47.3-29.3c11.7-8.8,22-18.3,30.6-27.9h106.3
			C446.8,333.4,437.3,339.6,426.9,345.5z M260.4,379.3V327h76C309.6,354.2,274.8,372.4,260.4,379.3z M464.9,318.1l-109-0.1
			c6.6-8.8,11.9-17.9,15.7-27h-8.1h-1.4c-4.2,9.2-10.1,18.3-17.6,27h-84.1v-5.4c-3.3-0.3-6.3-0.9-8.8-1.6v7h-84
			c-6.7-8.7-12-17.8-15.7-27h-9.5c3.4,9.2,8,18.4,14.2,27H47c-18.3-17.6-28.6-37.3-30-57.3h35l2.4-9H17.1
			c1.3-19.9,11.4-39.8,29.4-57.3h111.3c-0.9,1.4-1.9,2.7-2.8,4.1h10.8c1-1.4,2.1-2.8,3.1-4.1h82.6V227c2.4-2.4,5.5-4.8,8.8-6.6
			v-26.1h87.8c4.9,6.5,9.1,13.3,12.3,20.1c2.9-0.3,6-0.6,9.3-0.6c-2.9-6.7-6.6-13.3-10.9-19.7h106.3V194
			c18.1,17.7,28.4,37.5,29.5,57.6h-54.7l-1.4,5.2h17.6h11.7l-0.9,3.6h27.8C493.5,280.8,483.2,300.6,464.9,318.1z"/>
		<path class="st4" d="M87.4,282.1H55.6l15.7-58.4h27l-22.8-16.1h31.8L87.4,282.1z M120.3,282.1H93.6l20-74.4h26.6L120.3,282.1z
			 M153.1,282.1h-26.6l20-74.4h26.6L153.1,282.1z M242.6,256.7h-45.7l-1.2,4.5c-0.5,1.5-0.6,2.8-0.6,4c0,3.3,1.7,5,5.2,5
			c4.7,0,7.6-2.4,9-7.3h30.9c-6.7,13.1-21.2,19.8-43.3,19.8c-21.8,0-32.7-6.5-32.7-19.4c0-2.4,0.3-5,1.2-7.9l1.3-4.9
			c4.9-18.3,20.2-27.3,46.2-27.3c21.9,0,32.7,6.4,32.7,19.2c0,2.4-0.5,5.2-1.3,8.1L242.6,256.7z M213.7,246.3l0.6-2.1
			c0.3-1.4,0.6-2.7,0.6-3.8c0.1-3.4-1.6-5.1-5.2-5.1c-4.7,0-7.8,2.9-9.4,8.8l-0.6,2.1h14.1V246.3z M313.8,277.2
			c-4.9,18.3-18.5,27.3-40.8,27.3c-22.1,0-33.2-5.4-33.2-16.2c0-0.7,0-1.4,0.1-2.1h30.9c-0.1,0.7-0.2,1.3-0.2,1.9c0.1,2.6,2,4,5.8,4
			c4.5,0,7.7-2.9,9.2-8.7l0.8-3.1c-4.1,1.6-8.6,2.4-13.4,2.4c-18,0-27.1-6-27.1-18.3c0-2.8,0.5-5.7,1.3-9.1l1.3-4.9
			c4.9-18.3,18.4-27.3,40.4-27.3c4.7,0,8.7,0.9,12.1,2.7l0.6-2.1h26.5L313.8,277.2z M291.5,261.2l4.5-16.9c0.5-1.5,0.6-2.8,0.6-3.8
			c0-3.4-1.7-5-5.2-5c-4.7,0-7.8,2.9-9.4,8.8l-4.5,16.9c-0.3,1.5-0.6,2.8-0.6,3.8c0,3.4,1.7,5,5.2,5
			C286.7,270.1,289.8,267.2,291.5,261.2z M390,282.1h-26.6l0.6-2.1c-4.2,1.7-8.8,2.7-13.8,2.7c-19.1,0-28.6-4.3-28.6-13
			c0-1.2,0.2-2.6,0.6-3.8c1.7-6.4,5.9-10.9,12.6-13.6c4.1-1.6,10.6-2.9,19.4-3.7c8.8-0.8,15.4-2.1,19.4-3.8l0.5-1.5
			c0.2-0.9,0.3-1.7,0.3-2.4c0.1-3.3-2.1-4.9-6.5-4.9c-5.5,0-8.8,2.4-10.4,7.3h-27.9c6.9-13.3,20.7-19.9,41.6-19.9
			c19.2,0,28.8,5.9,28.8,17.9c0,2.4-0.3,5.1-1.2,8L390,282.1z M368,264.7l2-7.6c-1.5,0.6-3.8,1-7,1.5c-3.3,0.3-5.6,0.9-7.1,1.5
			c-2.4,1-4.1,2.6-4.5,4.7c-0.1,0.6-0.2,1-0.2,1.5c0,2.7,2.3,4,7.1,4C363.8,270.3,367.1,268.4,368,264.7z M422.9,282.1h-26.6
			l20-74.4h26.6L422.9,282.1z M452.1,282.1h-22.9l4.3-15.9h22.9L452.1,282.1z"/>
	</g>
</g>
</svg>
